<?xml version="1.0" encoding="UTF-8"?><!DOCTYPE svg PUBLIC "-//W3C//DTD SVG 1.1//EN" "http://www.w3.org/Graphics/SVG/1.1/DTD/svg11.dtd"><svg xmlns="http://www.w3.org/2000/svg" xmlns:xlink="http://www.w3.org/1999/xlink"><defs><filter id="icon-arrow-a"><feFlood flood-color="#FFE600" flood-opacity="1" result="floodOut"/><feComposite operator="atop" in="floodOut" in2="SourceGraphic" result="compOut"/><feBlend in="compOut" in2="SourceGraphic"/></filter><filter id="icon-web-desing-yellow-a"><feFlood flood-color="#FFE600" flood-opacity="1" result="floodOut"/><feComposite operator="atop" in="floodOut" in2="SourceGraphic" result="compOut"/><feBlend in="compOut" in2="SourceGraphic"/></filter></defs><symbol id="icon-arrow"><g filter="url(#icon-arrow-a)"><path fill-rule="evenodd" fill="#FFF" d="M10.7 10.92a.975.975 0 01-.7.286.973.973 0 01-.7-.285L1.063 2.683a.981.981 0 010-1.386l.694-.694a.983.983 0 011.387 0L10 7.459 16.856.603a.986.986 0 011.388 0l.694.694a.983.983 0 010 1.386L10.7 10.92zM1.757 7.776a.983.983 0 011.387 0L10 14.633l6.856-6.857a.986.986 0 011.388 0l.694.694a.984.984 0 010 1.387L10.7 18.093a.967.967 0 01-.7.286.976.976 0 01-.7-.284L1.063 9.857a.983.983 0 010-1.387l.694-.694z"/></g></symbol><symbol id="icon-developing"><path fill-rule="evenodd" fill="#FFF" d="M42.043 24.751v-7.359l-6.241-1.112a14.545 14.545 0 00-.862-2.053l3.438-4.732-5.403-5.315-4.801 3.375a15.164 15.164 0 00-2.098-.855L25.107.973h-7.638l-.97 5.725c-.725.235-1.426.522-2.098.856L9.599 4.18 4.198 9.493l3.436 4.732a14.404 14.404 0 00-.862 2.055l-5.833.956v7.515l5.848.959c.235.701.524 1.382.859 2.033l-3.448 4.748 5.401 5.316 4.836-3.397a15.57 15.57 0 002.057.838l.977 5.765h7.638l.977-5.767a15.173 15.173 0 002.057-.838l4.836 3.397 5.401-5.314-3.448-4.748c.336-.652.624-1.332.859-2.036l6.254-.956zm-20.755 1.247c-2.81 0-5.087-2.24-5.087-5.005 0-2.763 2.277-5.004 5.087-5.004 2.81 0 5.087 2.241 5.087 5.004 0 2.765-2.277 5.005-5.087 5.005"/></symbol><symbol id="icon-graphic"><path fill-rule="evenodd" fill="#FFF" d="M36.328 11.772l-8.4-8.4 2.4-2.401 8.4 8.401-2.4 2.4zm-2.4 2.4l-1.2 13.199c-10.798 0-26.399 12.001-26.399 12.001L4.336 37.38 14.6 27.116a3.6 3.6 0 10-2.017-2.015L2.322 35.364.329 33.372s12-15.6 12-26.4l13.201-1.2 8.398 8.4z"/></symbol><symbol id="icon-photography"><path fill-rule="evenodd" fill="#FFF" d="M11.607 17.941c0 4.287 3.541 7.763 7.907 7.763s7.907-3.476 7.907-7.763c0-4.286-3.541-7.761-7.907-7.761s-7.907 3.475-7.907 7.761M36.544 4.806h-8.515C27.421 2.417 26.813.029 24.38.029h-9.731c-2.433 0-3.042 2.388-3.649 4.777H2.484C1.147 4.806.052 5.881.052 7.193v21.496c0 1.312 1.095 2.388 2.432 2.388h34.06c1.337 0 2.433-1.076 2.433-2.388V7.193c0-1.312-1.096-2.387-2.433-2.387m-17.03 23.733c-5.962 0-10.795-4.743-10.795-10.598 0-5.854 4.833-10.598 10.795-10.598 5.963 0 10.796 4.744 10.796 10.598 0 5.855-4.833 10.598-10.796 10.598m17.468-16.538l-4.991.032V9.957l4.991.032v2.012z"/></symbol><symbol id="icon-web-desing-yellow"><g filter="url(#icon-web-desing-yellow-a)"><path fill-rule="evenodd" fill="#FFF" d="M6.034.037L4.978 5.999H31.44l-1.066 5.006H3.891l-1.268 5.921 26.743.044-1.769 7.953-10.666 3.534-9.245-3.534.459-2.954H1.511L.272 29.512l15.288 5.85 17.626-5.85L39.133.037H6.034z"/></g></symbol><symbol id="icon-web-desing"><path fill-rule="evenodd" fill="#FFF" d="M6.034.037L4.978 5.999H31.44l-1.066 5.006H3.891l-1.268 5.921 26.743.044-1.769 7.953-10.666 3.534-9.245-3.534.459-2.954H1.511L.272 29.512l15.288 5.85 17.626-5.85L39.133.037H6.034z"/></symbol></svg>